<svg id="Layer_1" data-name="Layer 1" xmlns="http://www.w3.org/2000/svg" xmlns:xlink="http://www.w3.org/1999/xlink" viewBox="0 0 47.23 35.24"><defs><style>.cls-1{fill:url(#linear-gradient);}.cls-2{fill:url(#linear-gradient-2);}</style><linearGradient id="linear-gradient" x1="59.14" y1="18.52" x2="-17.68" y2="16.86" gradientUnits="userSpaceOnUse"><stop offset="0.2" stop-color="#3e7cfd"/><stop offset="0.81" stop-color="#5fe0f4"/></linearGradient><linearGradient id="linear-gradient-2" x1="59.14" y1="18.68" x2="-17.68" y2="17.02" gradientUnits="userSpaceOnUse"><stop offset="0" stop-color="#3e7cfd"/><stop offset="1" stop-color="#5fe0f4"/></linearGradient></defs><polygon class="cls-1" points="44.61 35.14 44.66 35.24 12.48 35.24 18.02 25.64 20.54 21.28 27.38 9.43 32.7 9.43 20.21 31.06 36.93 31.06 33.8 25.64 32.54 23.47 33.81 21.28 39.55 21.28 39.53 21.25 32.74 9.49 32.71 9.43 32.71 9.43 32.71 9.42 30.05 4.83 30.05 4.82 32.7 0.21 35.39 4.88 39.34 11.71 47.38 25.64 39.12 25.64 42.25 31.06 44.61 35.14"/><path class="cls-2" d="M27.07,9.3l-6.35-.06L8.57,30.1,5.78,34.9l-.2.34H0l3.59-6.09,11.62-20L20.55,0l3,4.32Z"/></svg>